<svg width="128" height="128" viewBox="0 0 128 128" fill="none" xmlns="http://www.w3.org/2000/svg">
<g clip-path="url(#clip0)">
<rect width="128" height="128" rx="8" fill="white"/>
<rect width="128" height="128" fill="url(#paint0_linear)"/>
<rect x="36.5" y="14.5" width="59" height="99" rx="4.5" stroke="white" stroke-width="3"/>
<path d="M62.5 15.5H70.5V17.5C70.5 19.7091 68.7091 21.5 66.5 21.5C64.2909 21.5 62.5 19.7091 62.5 17.5V15.5Z" fill="white" stroke="white" stroke-linecap="round" stroke-linejoin="round"/>
<rect x="43" y="56" width="47" height="10" rx="2" fill="#53D5FF"/>
<rect x="43" y="72" width="47" height="10" rx="2" fill="#53D5FF"/>
<g filter="url(#filter0_d)">
<rect x="74" y="25" width="41.5" height="41.5" rx="4" fill="#188FFF"/>
<rect x="75" y="26" width="39.5" height="39.5" rx="3" stroke="white" stroke-width="2" stroke-linejoin="round"/>
</g>
<path d="M102.625 38.5C103.133 38.5 103.562 38.6953 103.953 39.0469C104.305 39.4375 104.5 39.8672 104.5 40.375V51.625C104.5 52.1719 104.305 52.6016 103.953 52.9531C103.562 53.3438 103.133 53.5 102.625 53.5H86.375C85.8281 53.5 85.3984 53.3438 85.0469 52.9531C84.6562 52.6016 84.5 52.1719 84.5 51.625V40.375C84.5 39.8672 84.6562 39.4375 85.0469 39.0469C85.3984 38.6953 85.8281 38.5 86.375 38.5H102.625ZM103.25 51.625V40.375C103.25 40.2188 103.172 40.0625 103.055 39.9453C102.938 39.8281 102.781 39.75 102.625 39.75H86.375C86.1797 39.75 86.0234 39.8281 85.9062 39.9453C85.7891 40.0625 85.75 40.2188 85.75 40.375V51.625C85.75 51.8203 85.7891 51.9766 85.9062 52.0938C86.0234 52.2109 86.1797 52.25 86.375 52.25H102.625C102.781 52.25 102.938 52.2109 103.055 52.0938C103.172 51.9766 103.25 51.8203 103.25 51.625ZM88.875 45.0625C88.25 45.0625 87.7422 44.8672 87.3125 44.4375C86.8828 44.0078 86.6875 43.5 86.6875 42.875C86.6875 42.2891 86.8828 41.7812 87.3125 41.3516C87.7422 40.9219 88.25 40.6875 88.875 40.6875C89.4609 40.6875 89.9688 40.9219 90.3984 41.3516C90.8281 41.7812 91.0625 42.2891 91.0625 42.875C91.0625 43.5 90.8281 44.0078 90.3984 44.4375C89.9688 44.8672 89.4609 45.0625 88.875 45.0625ZM88.875 41.9375C88.6016 41.9375 88.3672 42.0547 88.2109 42.2109C88.0156 42.4062 87.9375 42.6406 87.9375 42.875C87.9375 43.1484 88.0156 43.3828 88.2109 43.5391C88.3672 43.7344 88.6016 43.8125 88.875 43.8125C89.1094 43.8125 89.3438 43.7344 89.5391 43.5391C89.6953 43.3828 89.8125 43.1484 89.8125 42.875C89.8125 42.6406 89.6953 42.4062 89.5391 42.2109C89.3438 42.0547 89.1094 41.9375 88.875 41.9375ZM96.9609 42.8359C97.1172 42.6797 97.3516 42.5625 97.625 42.5625C97.8594 42.5625 98.0938 42.6797 98.2891 42.8359L101.727 46.2734C101.883 46.4688 102 46.7031 102 46.9375V50.5312C102 50.6875 101.922 50.8047 101.844 50.8828C101.766 50.9609 101.648 51 101.531 51H87.4688C87.3125 51 87.1953 50.9609 87.1172 50.8828C87.0391 50.8047 87 50.6875 87 50.5312V49.4375C87 49.2031 87.0781 48.9688 87.2734 48.7734L90.7109 45.3359C90.8672 45.1797 91.1016 45.0625 91.375 45.0625C91.6094 45.0625 91.8438 45.1797 92.0391 45.3359L93.25 46.5469L96.9609 42.8359ZM100.75 49.75V47.0547L97.625 43.9297L93.25 48.3047L91.375 46.4297L88.25 49.5547V49.75H100.75Z" fill="white"/>
<rect x="43" y="26" width="25" height="10" rx="2" fill="#53D5FF"/>
<rect x="43" y="42" width="25" height="10" rx="2" fill="#53D5FF"/>
<rect opacity="0.3" x="43" y="88" width="22" height="18" rx="2" fill="#53D5FF"/>
<rect opacity="0.3" x="68" y="88" width="22" height="18" rx="2" fill="#53D5FF"/>
<path opacity="0.6" d="M13.408 111.136V109.54L17.956 106.912V106.816L13.408 104.188V102.58H22V104.188H17.764L16.324 104.092V104.188L20.176 106.372V107.344L16.324 109.54V109.636L17.764 109.54H22V111.136H13.408ZM22.192 96.8961C22.192 97.5361 22.076 98.1321 21.844 98.6841C21.612 99.2281 21.296 99.7001 20.896 100.1C20.488 100.5 20.012 100.816 19.468 101.048C18.916 101.272 18.328 101.384 17.704 101.384C17.08 101.384 16.496 101.272 15.952 101.048C15.4 100.816 14.924 100.5 14.524 100.1C14.116 99.7001 13.796 99.2281 13.564 98.6841C13.332 98.1321 13.216 97.5361 13.216 96.8961C13.216 96.2561 13.332 95.6641 13.564 95.1201C13.796 94.5681 14.116 94.0921 14.524 93.6921C14.924 93.2921 15.4 92.9801 15.952 92.7561C16.496 92.5241 17.08 92.4081 17.704 92.4081C18.328 92.4081 18.916 92.5241 19.468 92.7561C20.012 92.9801 20.488 93.2921 20.896 93.6921C21.296 94.0921 21.612 94.5681 21.844 95.1201C22.076 95.6641 22.192 96.2561 22.192 96.8961ZM20.656 96.8961C20.656 96.4961 20.584 96.1241 20.44 95.7801C20.296 95.4281 20.096 95.1241 19.84 94.8681C19.584 94.6041 19.276 94.4001 18.916 94.2561C18.548 94.1041 18.144 94.0281 17.704 94.0281C17.264 94.0281 16.864 94.1041 16.504 94.2561C16.136 94.4001 15.824 94.6041 15.568 94.8681C15.312 95.1241 15.112 95.4281 14.968 95.7801C14.824 96.1241 14.752 96.4961 14.752 96.8961C14.752 97.2961 14.824 97.6721 14.968 98.0241C15.112 98.3681 15.312 98.6721 15.568 98.9361C15.824 99.1921 16.136 99.3961 16.504 99.5481C16.864 99.6921 17.264 99.7641 17.704 99.7641C18.144 99.7641 18.548 99.6921 18.916 99.5481C19.276 99.3961 19.584 99.1921 19.84 98.9361C20.096 98.6721 20.296 98.3681 20.44 98.0241C20.584 97.6721 20.656 97.2961 20.656 96.8961ZM13.408 91.0969V87.7369C13.408 87.3689 13.468 87.0249 13.588 86.7049C13.7 86.3849 13.86 86.1089 14.068 85.8769C14.268 85.6369 14.504 85.4489 14.776 85.3129C15.048 85.1769 15.34 85.1089 15.652 85.1089C16.108 85.1089 16.492 85.2209 16.804 85.4449C17.108 85.6609 17.34 85.9329 17.5 86.2609H17.596C17.756 85.8209 18.008 85.4689 18.352 85.2049C18.688 84.9329 19.108 84.7969 19.612 84.7969C19.98 84.7969 20.312 84.8729 20.608 85.0249C20.896 85.1689 21.144 85.3689 21.352 85.6249C21.56 85.8809 21.72 86.1809 21.832 86.5249C21.944 86.8609 22 87.2249 22 87.6169V91.0969H13.408ZM16.912 87.8569C16.912 87.4809 16.812 87.1929 16.612 86.9929C16.404 86.7849 16.16 86.6809 15.88 86.6809C15.6 86.6809 15.36 86.7809 15.16 86.9809C14.96 87.1809 14.86 87.4569 14.86 87.8089V89.4769H16.912V87.8569ZM20.512 87.6769C20.512 87.2689 20.412 86.9569 20.212 86.7409C20.004 86.5249 19.74 86.4169 19.42 86.4169C19.1 86.4169 18.836 86.5289 18.628 86.7529C18.412 86.9689 18.304 87.2929 18.304 87.7249V89.4769H20.512V87.6769ZM13.408 83.5501V81.9301H22V83.5501H13.408ZM13.408 80.1985V78.5785H20.464V74.9425H22V80.1985H13.408ZM14.944 72.1683H16.936V68.7243H18.472V72.1683H20.464L20.464 68.3403H22L22 73.7883H13.408L13.408 68.3403H14.944V72.1683ZM13.408 64.2141V60.8541C13.408 60.4861 13.468 60.1421 13.588 59.8221C13.7 59.5021 13.86 59.2261 14.068 58.9941C14.268 58.7541 14.504 58.5661 14.776 58.4301C15.048 58.2941 15.34 58.2261 15.652 58.2261C16.108 58.2261 16.492 58.3381 16.804 58.5621C17.108 58.7781 17.34 59.0501 17.5 59.3781H17.596C17.756 58.9381 18.008 58.5861 18.352 58.3221C18.688 58.0501 19.108 57.9141 19.612 57.9141C19.98 57.9141 20.312 57.9901 20.608 58.1421C20.896 58.2861 21.144 58.4861 21.352 58.7421C21.56 58.9981 21.72 59.2981 21.832 59.6421C21.944 59.9781 22 60.3421 22 60.7341V64.2141H13.408ZM16.912 60.9741C16.912 60.5981 16.812 60.3101 16.612 60.1101C16.404 59.9021 16.16 59.7981 15.88 59.7981C15.6 59.7981 15.36 59.8981 15.16 60.0981C14.96 60.2981 14.86 60.5741 14.86 60.9261V62.5941H16.912V60.9741ZM20.512 60.7941C20.512 60.3861 20.412 60.0741 20.212 59.8581C20.004 59.6421 19.74 59.5341 19.42 59.5341C19.1 59.5341 18.836 59.6461 18.628 59.8701C18.412 60.0861 18.304 60.4101 18.304 60.8421V62.5941H20.512V60.7941ZM22.192 53.5232C22.192 54.0272 22.112 54.4872 21.952 54.9032C21.784 55.3112 21.544 55.6592 21.232 55.9473C20.92 56.2352 20.544 56.4592 20.104 56.6192C19.656 56.7792 19.148 56.8592 18.58 56.8592H13.408V55.2392H18.676C18.964 55.2392 19.228 55.2032 19.468 55.1312C19.708 55.0592 19.916 54.9512 20.092 54.8072C20.268 54.6632 20.408 54.4832 20.512 54.2672C20.608 54.0512 20.656 53.8032 20.656 53.5232C20.656 53.2352 20.608 52.9832 20.512 52.7672C20.408 52.5512 20.268 52.3712 20.092 52.2272C19.916 52.0832 19.708 51.9752 19.468 51.9032C19.228 51.8312 18.964 51.7952 18.676 51.7952H13.408V50.1752H18.58C19.116 50.1752 19.608 50.2552 20.056 50.4152C20.496 50.5672 20.876 50.7912 21.196 51.0872C21.508 51.3752 21.752 51.7272 21.928 52.1432C22.104 52.5512 22.192 53.0112 22.192 53.5232ZM13.408 48.6399V47.0199H22V48.6399H13.408ZM13.408 45.2883V43.6683H20.464V40.0323H22V45.2883H13.408ZM13.408 38.8782V35.9742C13.408 35.2942 13.512 34.6822 13.72 34.1382C13.928 33.5942 14.224 33.1302 14.608 32.7462C14.984 32.3622 15.436 32.0702 15.964 31.8702C16.492 31.6622 17.072 31.5582 17.704 31.5582C18.344 31.5582 18.928 31.6622 19.456 31.8702C19.984 32.0702 20.436 32.3622 20.812 32.7462C21.188 33.1302 21.48 33.5942 21.688 34.1382C21.896 34.6822 22 35.2942 22 35.9742V38.8782H13.408ZM20.464 36.0462C20.464 35.5742 20.4 35.1582 20.272 34.7982C20.136 34.4382 19.948 34.1382 19.708 33.8982C19.468 33.6582 19.18 33.4782 18.844 33.3582C18.5 33.2382 18.12 33.1782 17.704 33.1782C17.288 33.1782 16.912 33.2382 16.576 33.3582C16.232 33.4782 15.94 33.6582 15.7 33.8982C15.46 34.1382 15.276 34.4382 15.148 34.7982C15.012 35.1582 14.944 35.5742 14.944 36.0462V37.2582H20.464V36.0462ZM14.944 28.6332H16.936V25.1892H18.472V28.6332H20.464V24.8052H22V30.2532H13.408V24.8052H14.944V28.6332ZM13.408 23.3157V20.1837C13.408 19.7517 13.476 19.3597 13.612 19.0077C13.748 18.6557 13.936 18.3557 14.176 18.1077C14.416 17.8517 14.704 17.6557 15.04 17.5197C15.368 17.3837 15.728 17.3157 16.12 17.3157C16.408 17.3157 16.68 17.3637 16.936 17.4597C17.184 17.5557 17.412 17.6877 17.62 17.8557C17.82 18.0237 18 18.2197 18.16 18.4437C18.312 18.6677 18.432 18.9037 18.52 19.1517L18.604 19.1637L21.904 16.8597H22V18.7197L18.772 20.9397V21.6957H22V23.3157H13.408ZM17.284 20.1957C17.284 19.8277 17.172 19.5277 16.948 19.2957C16.724 19.0557 16.44 18.9357 16.096 18.9357C15.944 18.9357 15.796 18.9637 15.652 19.0197C15.508 19.0677 15.38 19.1437 15.268 19.2477C15.156 19.3517 15.068 19.4837 15.004 19.6437C14.932 19.7957 14.896 19.9717 14.896 20.1717V21.6957H17.284V20.1957Z" fill="white"/>
</g>
<defs>
<filter id="filter0_d" x="44" y="10" width="101.5" height="101.5" filterUnits="userSpaceOnUse" color-interpolation-filters="sRGB">
<feFlood flood-opacity="0" result="BackgroundImageFix"/>
<feColorMatrix in="SourceAlpha" type="matrix" values="0 0 0 0 0 0 0 0 0 0 0 0 0 0 0 0 0 0 127 0"/>
<feOffset dy="15"/>
<feGaussianBlur stdDeviation="15"/>
<feColorMatrix type="matrix" values="0 0 0 0 0 0 0 0 0 0 0 0 0 0 0 0 0 0 0.25 0"/>
<feBlend mode="normal" in2="BackgroundImageFix" result="effect1_dropShadow"/>
<feBlend mode="normal" in="SourceGraphic" in2="effect1_dropShadow" result="shape"/>
</filter>
<linearGradient id="paint0_linear" x1="0" y1="64" x2="128" y2="64" gradientUnits="userSpaceOnUse">
<stop stop-color="#7D43F7"/>
<stop offset="1" stop-color="#1890FF"/>
</linearGradient>
<clipPath id="clip0">
<rect width="128" height="128" rx="8" fill="white"/>
</clipPath>
</defs>
</svg>
